<svg width="750" height="750" viewBox="0 0 750 750" fill="none" xmlns="http://www.w3.org/2000/svg">
<rect width="750" height="750" fill="white"/>
<rect width="750" height="750" fill="url(#paint0_radial_1398_1383)" fill-opacity="0.78"/>
<rect width="750" height="750" fill="url(#paint1_radial_1398_1383)" fill-opacity="0.74" style="mix-blend-mode:multiply"/>
<path d="M297.31 518.767V511.232C315.104 510.961 331.667 506.888 346.997 499.014C362.327 491.004 377.11 477.089 391.346 457.269C405.718 437.448 415.71 415.659 421.322 391.902C399.832 405.613 380.395 412.469 363.012 412.469C343.438 412.469 326.671 405.002 312.709 390.069C298.747 375 291.767 355.044 291.767 330.2C291.767 306.036 298.747 284.518 312.709 265.648C329.545 242.705 351.514 231.233 378.616 231.233C401.475 231.233 421.048 240.601 437.337 259.335C457.321 282.55 467.313 311.194 467.313 345.269C467.313 375.95 459.717 404.595 444.523 431.203C429.329 457.676 408.182 479.669 381.08 497.181C359.042 511.572 335.02 518.767 309.013 518.767H297.31ZM424.607 376.833C427.071 359.184 428.303 345.066 428.303 334.477C428.303 321.308 426.044 307.122 421.527 291.917C417.01 276.576 410.577 264.833 402.228 256.688C394.015 248.542 384.639 244.47 374.099 244.47C361.917 244.47 351.24 249.9 342.069 260.761C332.899 271.621 328.313 287.776 328.313 309.226C328.313 337.871 334.404 360.27 346.586 376.426C355.484 388.101 366.434 393.938 379.437 393.938C385.734 393.938 393.194 392.445 401.817 389.458C410.44 386.472 418.037 382.263 424.607 376.833Z" fill="white"/>
<path d="M602 375C602 500.369 500.369 602 375 602C249.631 602 148 500.369 148 375C148 249.631 249.631 148 375 148C500.369 148 602 249.631 602 375ZM171.492 375C171.492 487.394 262.606 578.508 375 578.508C487.394 578.508 578.508 487.394 578.508 375C578.508 262.606 487.394 171.492 375 171.492C262.606 171.492 171.492 262.606 171.492 375Z" fill="white"/>
<defs>
<radialGradient id="paint0_radial_1398_1383" cx="0" cy="0" r="1" gradientUnits="userSpaceOnUse" gradientTransform="translate(-136 -223.5) rotate(48.3824) scale(1492.12)">
<stop offset="0.18342" stop-color="#FFB000"/>
<stop offset="0.469626" stop-color="#5CCB1C"/>
<stop offset="0.82138" stop-color="#3EE6A4"/>
</radialGradient>
<radialGradient id="paint1_radial_1398_1383" cx="0" cy="0" r="1" gradientUnits="userSpaceOnUse" gradientTransform="translate(396.552 375) rotate(136.788) scale(537.195 888.88)">
<stop stop-color="#EBEBEB"/>
<stop offset="1"/>
</radialGradient>
</defs>
</svg>
